<?xml version="1.0" standalone="no"?>
<!DOCTYPE svg PUBLIC "-//W3C//DTD SVG 20010904//EN"
 "http://www.w3.org/TR/2001/REC-SVG-20010904/DTD/svg10.dtd">
<svg version="1.0" xmlns="http://www.w3.org/2000/svg"
 width="225.000000pt" height="225.000000pt" viewBox="0 0 225.000000 225.000000"
 preserveAspectRatio="xMidYMid meet">

<g transform="translate(0.000000,225.000000) scale(0.100000,-0.100000)"
fill="#000000" stroke="none">
<path d="M1070 2155 c-8 -2 -49 -9 -90 -15 -127 -21 -271 -80 -395 -163 -91
-61 -242 -220 -299 -315 -100 -167 -148 -343 -148 -537 0 -280 97 -518 292
-715 98 -100 171 -155 275 -207 326 -164 756 -145 1048 46 83 55 207 182 255
264 119 198 178 466 153 684 -7 53 -14 108 -17 120 l-6 23 -504 0 -504 0 0
-230 0 -230 255 0 c198 0 255 -3 255 -13 0 -27 -93 -148 -142 -186 -106 -79
-192 -106 -333 -105 -114 1 -207 28 -295 87 -113 76 -179 163 -226 295 -33 95
-33 239 0 334 47 133 118 224 231 298 193 125 454 112 636 -32 l51 -40 170
168 169 169 -48 44 c-123 112 -297 201 -467 237 -66 14 -282 28 -316 19z"/>
</g>
</svg>
