<?xml version="1.0" standalone="no"?>
<!DOCTYPE svg PUBLIC "-//W3C//DTD SVG 20010904//EN"
 "http://www.w3.org/TR/2001/REC-SVG-20010904/DTD/svg10.dtd">
<svg version="1.0" xmlns="http://www.w3.org/2000/svg"
 width="512.000000pt" height="512.000000pt" viewBox="0 0 512.000000 512.000000"
 preserveAspectRatio="xMidYMid meet">

<g transform="translate(0.000000,512.000000) scale(0.100000,-0.100000)"
fill="#000000" stroke="none">
<path d="M2370 4644 c-324 -40 -527 -95 -765 -208 -235 -112 -426 -247 -616
-436 -296 -295 -493 -644 -593 -1051 -83 -342 -78 -754 14 -1095 140 -521 470
-979 920 -1277 140 -93 372 -206 526 -256 410 -134 871 -147 1284 -35 647 175
1190 649 1457 1271 238 554 238 1205 0 1755 -299 691 -927 1180 -1682 1309
-116 20 -455 34 -545 23z m845 -1059 c39 -8 112 -35 163 -60 167 -83 279 -220
334 -410 23 -80 23 -82 23 -700 0 -565 -2 -627 -18 -698 -52 -219 -203 -393
-406 -467 -133 -49 -186 -52 -821 -48 -574 4 -586 4 -660 27 -186 56 -334 176
-408 332 -72 150 -72 152 -72 842 0 581 1 618 20 693 64 254 250 434 505 489
92 20 1243 20 1340 0z"/>
<path d="M1980 3384 c-221 -35 -327 -114 -392 -295 l-23 -64 0 -615 c0 -614 0
-615 23 -674 60 -159 159 -249 319 -291 87 -23 1188 -22 1276 1 126 33 222
103 275 202 62 116 62 119 62 750 0 640 -2 661 -66 769 -61 102 -131 157 -247
196 -60 21 -81 21 -632 23 -313 1 -581 0 -595 -2z m1278 -210 c36 -24 62 -74
62 -123 0 -82 -61 -141 -147 -141 -123 0 -184 157 -95 243 50 48 125 56 180
21z m-565 -170 c286 -74 484 -343 464 -633 -15 -215 -142 -409 -329 -500 -107
-53 -182 -71 -287 -71 -160 0 -303 56 -418 163 -81 76 -130 151 -166 257 -58
165 -33 370 61 516 89 136 229 237 381 273 62 15 228 12 294 -5z"/>
<path d="M2446 2799 c-62 -15 -153 -68 -197 -116 -22 -24 -55 -74 -72 -111
-29 -61 -32 -76 -32 -162 0 -86 3 -101 32 -162 58 -123 169 -207 302 -229 168
-27 344 69 419 229 24 50 27 69 27 162 0 97 -2 110 -31 170 -80 169 -269 261
-448 219z"/>
</g>
</svg>
