<?xml version="1.0" standalone="no"?>
<!DOCTYPE svg PUBLIC "-//W3C//DTD SVG 20010904//EN"
 "http://www.w3.org/TR/2001/REC-SVG-20010904/DTD/svg10.dtd">
<svg version="1.0" xmlns="http://www.w3.org/2000/svg"
 width="512.000000pt" height="512.000000pt" viewBox="0 0 512.000000 512.000000"
 preserveAspectRatio="xMidYMid meet">

<g transform="translate(0.000000,512.000000) scale(0.100000,-0.100000)"
fill="#000000" stroke="none">
<path d="M2255 4633 c-642 -86 -1239 -474 -1584 -1030 -304 -491 -405 -1085
-281 -1658 47 -218 158 -490 278 -683 179 -287 445 -553 728 -725 251 -153
498 -246 791 -299 171 -30 548 -33 715 -5 379 64 703 202 1007 430 123 92 326
295 418 418 246 328 399 710 442 1101 14 125 14 371 0 496 -52 473 -263 928
-594 1280 -345 366 -827 612 -1323 676 -154 20 -446 19 -597 -1z m1061 -1237
c40 -15 103 -51 145 -83 l74 -56 85 22 c47 12 124 41 172 64 49 23 88 39 88
35 0 -5 -13 -34 -29 -66 -36 -71 -92 -140 -154 -188 -26 -20 -46 -38 -44 -40
6 -6 146 27 217 51 41 14 75 23 77 21 9 -9 -126 -162 -191 -216 l-73 -60 -6
-138 c-27 -657 -460 -1247 -1062 -1445 -207 -69 -447 -98 -653 -79 -232 22
-404 71 -605 174 l-122 63 160 6 c172 7 245 22 390 78 81 31 231 117 255 146
11 13 8 15 -22 15 -52 0 -145 27 -212 63 -104 54 -231 198 -260 294 -7 21 -5
21 81 21 48 -1 104 3 123 7 l35 8 -68 22 c-175 59 -320 218 -362 397 -8 35
-15 80 -15 101 l0 38 28 -14 c38 -20 119 -44 172 -53 l45 -6 -66 64 c-73 71
-128 161 -155 253 -23 77 -24 230 -2 301 13 42 42 109 53 122 1 2 52 -46 112
-105 60 -59 151 -138 203 -175 216 -153 503 -262 755 -286 l80 -8 0 121 c1
142 20 210 92 317 76 115 186 194 324 233 85 24 245 15 335 -19z"/>
</g>
</svg>
